Coordinates
version=1
nRows=16
nColumns=22
inDegrees=yes

Units are S.I. units (second, meters, Newtons, ...)
If the header above contains a line with 'inDegrees', this indicates whether rotational values are in degrees (yes) or radians (no).

endheader
time	pelvis_tilt	pelvis_list	pelvis_rotation	pelvis_tx	pelvis_ty	pelvis_tz	hip_flexion_r	hip_adduction_r	hip_rotation_r	knee_angle_r	ankle_angle_r	subtalar_angle_r	hip_flexion_l	hip_adduction_l	hip_rotation_l	knee_angle_l	ankle_angle_l	subtalar_angle_l	lumbar_extension	lumbar_bending	lumbar_rotation
      2.53000000	      2.40081111	     -0.71367392	     -1.45040184	      0.48624603	      0.92352418	      0.13726618	     17.37494930	     -2.44820529	      0.59792903	    -61.95911604	      0.78173894	      9.06240496	      8.14584134	      1.39126449	    -12.30005309	    -24.16932678	     10.94787290	     -4.89746807	     -9.98887602	     -3.34736788	     -1.04118807
      2.54000000	      2.28127380	     -0.51583396	     -1.25744720	      0.48000757	      0.92334858	      0.13714227	     15.86369843	     -2.58327686	      0.48571416	    -61.84052750	      0.57295601	      9.64670274	      8.59976712	      1.58152955	    -12.20507612	    -23.92884259	     10.53235206	     -4.59992263	     -9.70342569	     -3.58744837	     -1.06255411
      2.55000000	      2.20681398	     -0.34552887	     -1.09840239	      0.47367997	      0.92312106	      0.13715887	     14.27951444	     -2.64240709	      0.39856975	    -61.56794444	      0.29810722	     10.43134126	      9.05460967	      1.72188808	    -12.19084646	    -23.78860813	     10.16073884	     -4.30281366	     -9.47199190	     -3.80924906	     -1.01075922
      2.56000000	      2.11238850	     -0.18855099	     -0.93847832	      0.46724144	      0.92279915	      0.13723529	     12.70308847	     -2.65466663	      0.29949022	    -61.14444848	     -0.07016541	     11.15620078	      9.55010855	      1.85910694	    -12.11702420	    -23.66395604	      9.76202574	     -4.11702036	     -9.21941822	     -4.01663849	     -0.93010674
      2.57000000	      2.01672735	     -0.05846684	     -0.80763206	      0.46068735	      0.92240498	      0.13744174	     11.12774626	     -2.59344217	      0.22689881	    -60.57785941	     -0.49666725	     11.90629994	     10.07351290	      1.96056730	    -12.06898836	    -23.58034504	      9.37372329	     -3.98914857	     -8.96781966	     -4.20089694	     -0.79655554
      2.58000000	      1.89919497	      0.04416993	     -0.70216219	      0.45398742	      0.92192418	      0.13776532	      9.59231769	     -2.46337133	      0.18381645	    -59.87808248	     -0.98623099	     12.58266987	     10.64750150	      2.02418157	    -12.04449126	    -23.52979778	      8.97310510	     -3.92478270	     -8.69351892	     -4.35896924	     -0.63406860
      2.59000000	      1.78414284	      0.12634530	     -0.63161584	      0.44705907	      0.92136198	      0.13821141	      8.09383682	     -2.27646650	      0.18715614	    -59.07326618	     -1.44401419	     13.29472682	     11.26892940	      2.05670949	    -12.02727690	    -23.55165282	      8.56750668	     -3.89171070	     -8.44571114	     -4.50077167	     -0.36582299
      2.60000000	      1.62972787	      0.18151819	     -0.59164436	      0.43996546	      0.92070221	      0.13877749	      6.68158451	     -2.03136471	      0.23060981	    -58.15885957	     -1.93260286	     13.84925234	     11.95191439	      2.04763967	    -12.05835550	    -23.58721125	      8.15452281	     -3.89819185	     -8.15681093	     -4.61365137	     -0.09370527
      2.61000000	      1.46337869	      0.21572090	     -0.59071140	      0.43262368	      0.91995887	      0.13946761	      5.34675498	     -1.74019750	      0.33067842	    -57.15991377	     -2.35135383	     14.36612241	     12.68497651	      2.00516675	    -12.09456625	    -23.66501032	      7.72238245	     -3.92136313	     -7.87809499	     -4.70949636	      0.26337007
      2.62000000	      1.27435399	      0.23403971	     -0.63532016	      0.42505779	      0.91912465	      0.14024350	      4.10875491	     -1.42437598	      0.48514010	    -56.08050120	     -2.70593878	     14.78631618	     13.46735490	      1.93464233	    -12.15597417	    -23.76433327	      7.28223706	     -3.95417409	     -7.59144123	     -4.77981715	      0.66357413
      2.63000000	      1.07335806	      0.22849450	     -0.72265328	      0.41722959	      0.91821273	      0.14114768	      2.96602102	     -1.07084775	      0.70460582	    -54.92891221	     -2.96825399	     15.21380635	     14.28593646	      1.82637937	    -12.21322459	    -23.87766154	      6.85965481	     -3.99245896	     -7.31588429	     -4.83131018	      1.14262067
      2.64000000	      0.85469724	      0.22989383	     -0.85194519	      0.40918380	      0.91721923	      0.14210556	      1.92697708	     -0.74209941	      0.94865387	    -53.70647343	     -3.14754832	     15.42842119	     15.14372051	      1.70485591	    -12.35137380	    -24.00406772	      6.38636545	     -4.02759344	     -7.04004640	     -4.87746522	      1.61210734
      2.65000000	      0.63314233	      0.21800831	     -1.03427440	      0.40088074	      0.91615462	      0.14316826	      0.98170190	     -0.41112842	      1.23882771	    -52.41376521	     -3.21571232	     15.58789739	     16.02081167	      1.55168687	    -12.50338517	    -24.13475576	      5.91186349	     -4.06507226	     -6.78483951	     -4.90699324	      2.13445303
      2.66000000	      0.41068984	      0.20588918	     -1.26472768	      0.39232406	      0.91501814	      0.14429279	      0.12993416	     -0.10281162	      1.55718558	    -51.05276730	     -3.18009662	     15.66282565	     16.91048626	      1.38082581	    -12.68823895	    -24.26110455	      5.42529292	     -4.10529811	     -6.55449807	     -4.92707103	      2.68708614
      2.67000000	      0.19462531	      0.19705830	     -1.54328228	      0.38350858	      0.91381102	      0.14548075	     -0.63608086	      0.17391509	      1.89082793	    -49.62396977	     -3.03922990	     15.63391863	     17.80401448	      1.19330548	    -12.91036309	    -24.38153684	      4.91916997	     -4.15294457	     -6.35709142	     -4.94193424	      3.25701366
      2.68000000	     -0.01242835	      0.19208046	     -1.86930089	      0.37443014	      0.91252676	      0.14672863	     -1.32008797	      0.41697023	      2.23156691	    -48.13071485	     -2.79085699	     15.48219356	     18.69581917	      0.98881950	    -13.16945802	    -24.49111689	      4.39698652	     -4.21605001	     -6.19578677	     -4.95043472	      3.83694723
